<svg xmlns="http://www.w3.org/2000/svg" xmlns:xlink="http://www.w3.org/1999/xlink" version="1.0" x="0px" y="0px" width="75.545px" height="100px" viewBox="0 0 75.545 100" overflow="visible" enable-background="new 0 0 75.545 100" xml:space="preserve">
    <path d="M32.323,41.905c0.99-0.266,1.575-1.278,1.309-2.263c-0.266-0.99-1.278-1.57-2.259-1.309 c-0.99,0.266-1.574,1.278-1.309,2.263C30.326,41.583,31.338,42.171,32.323,41.905z"/>
    <path d="M43.218,41.905c0.985,0.266,1.998-0.323,2.263-1.309c0.268-0.985-0.321-1.998-1.307-2.263 c-0.982-0.262-1.998,0.318-2.265,1.304C41.648,40.627,42.233,41.639,43.218,41.905z"/>
    <path d="M52.648,44.736c-0.721,0.725-0.721,1.889,0,2.612c0.725,0.725,1.893,0.725,2.616,0c0.716-0.724,0.716-1.888,0-2.612 C54.541,44.012,53.373,44.012,52.648,44.736z"/>
    <path d="M60.355,58.09c0.99-0.263,1.574-1.282,1.309-2.263c-0.263-0.985-1.273-1.572-2.26-1.31 c-0.99,0.267-1.57,1.278-1.312,2.267C58.362,57.773,59.373,58.35,60.355,58.09z"/>
    <path d="M60.359,66.365c-0.986-0.262-1.997,0.322-2.268,1.309c-0.258,0.987,0.322,1.998,1.312,2.264 c0.986,0.266,1.997-0.318,2.26-1.31C61.929,67.648,61.345,66.63,60.359,66.365z"/>
    <path d="M52.648,77.109c-0.721,0.718-0.721,1.891,0,2.611c0.725,0.724,1.893,0.724,2.616,0c0.716-0.721,0.716-1.894,0-2.611 C54.541,76.383,53.373,76.383,52.648,77.109z"/>
    <path d="M43.218,82.554c-0.985,0.261-1.57,1.274-1.309,2.259c0.267,0.991,1.273,1.57,2.265,1.31 c0.985-0.263,1.574-1.276,1.307-2.264C45.216,82.875,44.204,82.289,43.218,82.554z"/>
    <path d="M32.323,82.554c-0.985-0.266-1.997,0.32-2.259,1.305c-0.266,0.987,0.319,2.001,1.309,2.264 c0.981,0.261,1.994-0.325,2.259-1.31C33.898,83.829,33.313,82.815,32.323,82.554z"/>
    <path d="M20.281,77.109c-0.724,0.718-0.724,1.891,0,2.611c0.719,0.724,1.889,0.724,2.612,0c0.72-0.721,0.72-1.894,0-2.611 C22.17,76.383,21,76.383,20.281,77.109z"/>
    <path d="M15.187,66.369c-0.986,0.262-1.575,1.273-1.309,2.259c0.266,0.991,1.278,1.57,2.264,1.31 c0.986-0.266,1.57-1.276,1.309-2.264C17.184,66.687,16.173,66.103,15.187,66.369z"/>
    <path d="M15.187,58.09c0.986,0.26,1.997-0.317,2.264-1.306c0.261-0.988-0.323-2-1.309-2.267 c-0.986-0.263-1.998,0.324-2.264,1.31C13.612,56.808,14.201,57.828,15.187,58.09z"/>
    <path d="M41.304,58.697c-0.224-0.218-0.459-0.405-0.706-0.573l0.021-0.029L22.894,44.736c-0.724-0.724-1.893-0.724-2.612,0 c-0.724,0.725-0.724,1.889,0,2.612L33.64,65.074l0.026-0.024c0.17,0.251,0.358,0.486,0.576,0.706 c1.949,1.948,5.11,1.948,7.062,0C43.244,63.809,43.244,60.646,41.304,58.697z"/>
    <path d="M66.709,37.949l1.861-1.862l0.646,0.646c0.542,0.541,1.419,0.541,1.955,0l2.442-2.438c0.536-0.541,0.536-1.417,0-1.954 L73.6,32.327l-5.813-5.813h-0.004c-0.537-0.541-1.413-0.541-1.954,0l-2.438,2.438c-0.541,0.541-0.541,1.414,0,1.954 l0.633,0.632l-1.854,1.854c-4.37-3.699-9.586-6.425-15.321-7.838c3.245-2.635,5.316-6.651,5.316-11.162 C52.164,6.442,45.722,0,37.771,0c-7.947,0-14.393,6.442-14.393,14.393c0,4.51,2.076,8.527,5.316,11.162 c-5.73,1.413-10.947,4.139-15.317,7.838l-1.854-1.854l0.628-0.632c0.537-0.541,0.537-1.413,0-1.954l-2.442-2.438 c-0.537-0.541-1.409-0.541-1.95,0l0,0l-5.814,5.813L1.937,32.34c-0.545,0.537-0.545,1.413,0,1.954l2.434,2.438 c0.541,0.541,1.418,0.541,1.954,0l0.65-0.646l1.863,1.862C3.324,44.518,0,52.985,0,62.226C0,83.091,16.91,100,37.771,100 c20.86,0,37.774-16.909,37.774-37.774C75.545,52.985,72.227,44.518,66.709,37.949z M28.097,14.393 c0-5.342,4.331-9.674,9.674-9.674c5.343,0,9.678,4.332,9.678,9.674c0,4.188-2.665,7.75-6.38,9.099v-6.181h0.911 c0.763,0,1.382-0.619,1.382-1.382v-3.45c0-0.764-0.619-1.382-1.382-1.382h-0.018h-8.217h-0.004 c-0.763,0-1.382,0.619-1.382,1.382v3.45c0,0.763,0.619,1.382,1.382,1.382h0.89v6.233 C30.832,22.239,28.097,18.637,28.097,14.393z M37.771,90.777c-15.719,0-28.459-12.743-28.459-28.464 c0-15.714,12.74-28.459,28.459-28.459c15.715,0,28.458,12.745,28.458,28.459C66.229,78.034,53.486,90.777,37.771,90.777z"/>
</svg>